<?xml version="1.0" encoding="iso-8859-1"?>
<!-- Uploaded to: SVG Repo, www.svgrepo.com, Generator: SVG Repo Mixer Tools -->
<svg version="1.1" id="Layer_1" xmlns="http://www.w3.org/2000/svg" xmlns:xlink="http://www.w3.org/1999/xlink" 
	 viewBox="0 0 512 512" xml:space="preserve">
<polygon style="fill:#FFBE00;" points="512,96.48 256,0.538 235.129,255.46 256,511.459 380.442,511.459 405.116,501.024 
	429.791,511.459 512,511.459 "/>
<polygon style="fill:#FFE074;" points="0,96.48 0,511.459 82.209,511.459 106.884,501.024 131.557,511.459 256,511.459 256,0.538 
	"/>
<polygon style="fill:#0089D3;" points="409.04,255.459 409.677,255.459 390.413,147.315 359.082,134.419 273.957,134.419 
	262.952,139.216 256,134.419 235.129,276.33 "/>
<polygon style="fill:#63C8EE;" points="256,134.419 243.14,149.643 229.72,134.419 123.884,134.419 102.323,255.459 102.96,255.459 
	256,276.33 "/>
<g>
	<polygon style="fill:#BAE5FF;" points="229.72,134.419 108.68,255.459 129.486,271.639 152.917,255.459 273.957,134.419 	"/>
	<polygon style="fill:#BAE5FF;" points="388.116,134.419 359.082,134.419 238.042,255.459 261.561,271.639 282.279,255.459 
		390.415,147.323 	"/>
</g>
<path style="fill:#FC2B32;" d="M235.129,397.371L447.364,376.5v-82.715c0-21.167-17.159-38.325-38.325-38.325H256L235.129,397.371z"
	/>
<path style="fill:#FF5D65;" d="M256,255.459H102.96c-21.167,0-38.325,17.159-38.325,38.325V376.5L256,397.371V255.459z"/>
<rect x="82.206" y="409.549" style="fill:#B3B3B3;" width="49.351" height="101.913"/>
<rect x="380.439" y="409.549" style="fill:#898989;" width="49.351" height="101.913"/>
<circle style="fill:#FFE074;" cx="122.329" cy="315.978" r="20.009"/>
<circle style="fill:#FFBE00;" cx="389.667" cy="315.978" r="20.009"/>
<rect x="175.684" y="293.184" style="fill:#FC2B32;" width="31.281" height="95.584"/>
<g>
	<rect x="305.041" y="293.184" style="fill:#ED0003;" width="31.281" height="95.584"/>
	<polygon style="fill:#ED0003;" points="271.64,293.187 256,293.187 248.18,342.293 256,388.768 271.64,388.768 	"/>
</g>
<rect x="240.363" y="293.184" style="fill:#FC2B32;" width="15.64" height="95.584"/>
<polygon style="fill:#B3B3B3;" points="462.759,376.5 447.364,376.5 256,376.5 238.042,401.831 256,427.164 462.759,427.164 "/>
<polygon style="fill:#D8D8D8;" points="64.636,376.5 49.241,376.5 49.241,427.164 256,427.164 256,376.5 "/>
</svg>